<?xml version="1.0" encoding="utf-8"?>
<!-- Generator: Adobe Illustrator 17.1.0, SVG Export Plug-In . SVG Version: 6.00 Build 0)  -->
<!DOCTYPE svg PUBLIC "-//W3C//DTD SVG 1.1//EN" "http://www.w3.org/Graphics/SVG/1.1/DTD/svg11.dtd">
<svg version="1.1" id="Layer_1" xmlns="http://www.w3.org/2000/svg" xmlns:xlink="http://www.w3.org/1999/xlink" x="0px" y="0px"
	 viewBox="0 0 546.6 47.8" enable-background="new 0 0 546.6 47.8" xml:space="preserve">
<g>
	<g>
		<path fill="#FFFFFF" d="M63.9,28.5L45.7,4.4c-2.2-2.9,2.6-5.5,4.5-2.7L66.5,24L83,1.7c1.8-2.7,6.3-0.4,4.3,2.6L69.3,28.5v16.1
			c0,1.8-1.4,2.7-2.7,2.7c-1.4,0-2.7-0.9-2.7-2.7V28.5z"/>
		<path fill="#FFFFFF" d="M127.1,45.2c-3.5,1.6-7.3,2.6-10.8,2.6c-12.3,0-23.4-10.1-23.4-24.3c0-11.8,8.4-21.2,19.5-22.9
			c8.4-1.2,15.8,0.9,21.5,6.9c2.2,2.4-1.7,5.4-3.7,3.2c-4.9-5.2-10.6-6-16.9-5.3c-8.9,1.4-15.1,7.6-15.1,18.1
			c0,10.9,8.4,19.3,18.4,19.3c2.7,0,5.6-0.7,8.4-2.1c2.2-1.2,4.4-2.9,5.9-4.8c1.7-2.4,6,0.2,4.2,2.9C133,41.5,130.2,43.7,127.1,45.2
			z"/>
		<path fill="#FFFFFF" d="M144.4,23.3c0-11.3,7.6-20.9,19.1-22.7c2.7-0.4,5.1-0.3,7.6,0c11.1,1.7,19.7,10.9,19.7,22.7
			c0,15-10.8,24.5-23,24.5C154.8,47.8,144.4,38.6,144.4,23.3z M149.8,23.5c0,11.8,7.8,19.3,17.9,19.3c9.7,0,17.7-7.2,17.7-19.3
			c0-9.3-6.1-16.7-15-18.1c-2.2-0.3-4.2-0.3-6.3,0C155.5,6.8,149.8,13.7,149.8,23.5z"/>
	</g>
	<path fill="#FFFFFF" d="M48.3,44L26.6,1.4C26.1,0.4,25.3,0,24.3,0c-0.9,0-1.9,0.4-2.4,1.4L0.2,44.2C-1.1,47.1,3.7,49,5,46.3
		l5.8-11.4l2.2-4.5L24.3,7.7l11.3,22.7l2.2,4.5l5.6,11.2C44.9,48.9,50.2,47.1,48.3,44z"/>
	
		<line fill="#FFFFFF" stroke="#FFFFFF" stroke-width="0.6" stroke-linecap="round" stroke-linejoin="round" stroke-miterlimit="10" x1="213.3" y1="1.6" x2="213.3" y2="46.2"/>
</g>
<g>
	<path fill="#FFFFFF" d="M235.6,26.7l-1.5,2.9c-0.3,0.7-1.5,0.2-1.2-0.5l5.5-10.9c0.1-0.2,0.4-0.3,0.6-0.3c0.2,0,0.5,0.1,0.6,0.3
		l5.5,10.8c0.5,0.8-0.9,1.2-1.2,0.5l-1.4-2.8H235.6z M239,19.7l-2.9,5.8h5.8L239,19.7z"/>
	<path fill="#FFFFFF" d="M266,27.7c-1.1,1.4-2.9,2.2-4.7,2.2c-3.1,0-5.9-2.6-5.8-6.1c0-2.8,2.1-5.3,4.9-5.9c0.3,0,0.6-0.1,1-0.1
		c1.6,0,3.3,0.5,4.3,1.7c0.5,0.6-0.4,1.5-1,0.9c-1-1.2-2.7-1.6-4.1-1.3c-2,0.5-3.8,2.3-3.8,4.6c0,2.6,2.1,4.7,4.5,4.8
		c1.4,0,2.8-0.6,3.6-1.6v-2.4h-3.3c-0.9,0-0.8-1.2,0-1.2h3.9c0.5,0,0.7,0.3,0.7,0.7v3.1C266.2,27.3,266.2,27.5,266,27.7z"/>
	<path fill="#FFFFFF" d="M270.3,23.7c0-2.9,1.9-5.3,4.8-5.8c0.7-0.1,1.3-0.1,1.9,0c2.8,0.4,5,2.8,5,5.8c0,3.8-2.7,6.2-5.9,6.2
		C272.9,29.9,270.3,27.6,270.3,23.7z M271.7,23.8c0,3,2,4.9,4.6,4.9c2.5,0,4.5-1.8,4.5-4.9c0-2.4-1.6-4.2-3.8-4.6
		c-0.5-0.1-1.1-0.1-1.6,0C273.1,19.5,271.7,21.3,271.7,23.8z"/>
	<path fill="#FFFFFF" d="M287.5,29.7c-0.5,0-0.7-0.2-0.7-0.7V18.6c0-0.9,1.4-0.9,1.4,0v10h6.8c0.9,0,0.9,1.2,0,1.2H287.5z"/>
	<path fill="#FFFFFF" d="M300.1,29.7c-0.5,0-0.8-0.4-0.8-0.8V18.9c0-0.4,0.4-0.8,0.8-0.8h4c3.6,0,5.5,2.9,5.5,5.8s-1.8,5.8-5.5,5.8
		H300.1z M300.6,28.5h3.5c2.7,0,4.1-2.3,4.1-4.6s-1.4-4.6-4.1-4.6h-3.5V28.5z"/>
	<path fill="#FFFFFF" d="M324.3,18.4c0.4-0.7,1.3-0.4,1.3,0.3v10.5c0,0.9-1.3,0.9-1.3,0v-8.3l-3.7,5.8c-0.3,0.5-1,0.5-1.3,0
		l-3.7-5.8v8.3c0,0.9-1.3,0.9-1.3,0V18.7c0-0.8,0.9-1,1.2-0.3l4.5,7L324.3,18.4z"/>
	<path fill="#FFFFFF" d="M332.3,26.7l-1.5,2.9c-0.3,0.7-1.5,0.2-1.2-0.5l5.5-10.9c0.1-0.2,0.4-0.3,0.6-0.3c0.2,0,0.5,0.1,0.6,0.3
		l5.5,10.8c0.5,0.8-0.9,1.2-1.2,0.5l-1.4-2.8H332.3z M335.8,19.7l-2.9,5.8h5.8L335.8,19.7z"/>
	<path fill="#FFFFFF" d="M354.2,18.5c0-0.8,1.4-0.8,1.4,0V29c0,0.9-1.3,1-1.6,0.4l-6.8-9.2l0.1,2.5v6.5c0,0.9-1.4,0.9-1.4,0V18.7
		c0-0.9,1-1.1,1.5-0.4l7,9.4l-0.2-2.8V18.5z"/>
	<path fill="#FFFFFF" d="M368.3,26.8c0.5,1.5,2.5,1.8,4,1.8c1.6,0,4-0.5,4-2.3c0-1.6-1.9-1.7-3.9-1.9c-2.5-0.2-5.2-0.4-5.2-3.2
		c0-2.4,2.8-3.5,5-3.5c1.9,0,4.3,0.5,5.1,2.5c0.3,0.7-1,1.1-1.2,0.4c-0.5-1.4-2.5-1.6-3.8-1.6c-1.2,0-3.6,0.5-3.6,2.2
		c0,1.6,1.8,1.8,4,1.9c2.5,0.2,5.2,0.3,5.2,3.1c0,2.8-3.1,3.7-5.4,3.7c-1.9,0-4.7-0.6-5.3-2.8C366.7,26.4,368.1,26.1,368.3,26.8z"/>
	<path fill="#FFFFFF" d="M383.2,26.7l-1.5,2.9c-0.3,0.7-1.5,0.2-1.2-0.5l5.5-10.9c0.1-0.2,0.4-0.3,0.6-0.3c0.2,0,0.5,0.1,0.6,0.3
		l5.5,10.8c0.5,0.8-0.9,1.2-1.2,0.5l-1.4-2.8H383.2z M386.7,19.7l-2.9,5.8h5.8L386.7,19.7z"/>
	<path fill="#FFFFFF" d="M404.5,29.3c-0.9,0.4-1.9,0.7-2.7,0.7c-3.1,0-5.9-2.6-5.9-6.2c0-3,2.1-5.4,5-5.8c2.1-0.3,4,0.2,5.5,1.8
		c0.5,0.6-0.4,1.4-1,0.8c-1.2-1.3-2.7-1.5-4.3-1.3c-2.3,0.3-3.8,1.9-3.8,4.6c0,2.8,2.1,4.9,4.7,4.9c0.7,0,1.4-0.2,2.1-0.5
		c0.6-0.3,1.1-0.7,1.5-1.2c0.4-0.6,1.5,0.1,1.1,0.7C405.9,28.3,405.2,28.9,404.5,29.3z"/>
	<path fill="#FFFFFF" d="M412.7,23.5h6.7v-5c0-0.9,1.3-0.9,1.3,0v10.7c0,0.9-1.3,0.9-1.3,0v-4.5c-2.3,0-4.4,0-6.7,0v4.5
		c0,1-1.3,0.8-1.3,0V18.5c0-0.9,1.3-0.8,1.3,0V23.5z"/>
	<path fill="#FFFFFF" d="M426.8,26.8c0.5,1.5,2.5,1.8,4,1.8c1.6,0,4-0.5,4-2.3c0-1.6-1.9-1.7-3.9-1.9c-2.5-0.2-5.2-0.4-5.2-3.2
		c0-2.4,2.8-3.5,5-3.5c1.9,0,4.3,0.5,5.1,2.5c0.3,0.7-1,1.1-1.2,0.4c-0.5-1.4-2.5-1.6-3.8-1.6c-1.2,0-3.6,0.5-3.6,2.2
		c0,1.6,1.8,1.8,4,1.9c2.5,0.2,5.2,0.3,5.2,3.1c0,2.8-3.1,3.7-5.4,3.7c-1.9,0-4.7-0.6-5.3-2.8C425.2,26.4,426.6,26.1,426.8,26.8z"/>
	<path fill="#FFFFFF" d="M455.6,29.3c-0.9,0.4-1.9,0.7-2.7,0.7c-3.1,0-5.9-2.6-5.9-6.2c0-3,2.1-5.4,5-5.8c2.1-0.3,4,0.2,5.5,1.8
		c0.5,0.6-0.4,1.4-1,0.8c-1.2-1.3-2.7-1.5-4.3-1.3c-2.3,0.3-3.8,1.9-3.8,4.6c0,2.8,2.1,4.9,4.7,4.9c0.7,0,1.4-0.2,2.1-0.5
		c0.6-0.3,1.1-0.7,1.5-1.2c0.4-0.6,1.5,0.1,1.1,0.7C457.1,28.3,456.4,28.9,455.6,29.3z"/>
	<path fill="#FFFFFF" d="M461.3,23.7c0-2.9,1.9-5.3,4.8-5.8c0.7-0.1,1.3-0.1,1.9,0c2.8,0.4,5,2.8,5,5.8c0,3.8-2.7,6.2-5.9,6.2
		C463.9,29.9,461.3,27.6,461.3,23.7z M462.6,23.8c0,3,2,4.9,4.6,4.9c2.5,0,4.5-1.8,4.5-4.9c0-2.4-1.6-4.2-3.8-4.6
		c-0.5-0.1-1.1-0.1-1.6,0C464.1,19.5,462.6,21.3,462.6,23.8z"/>
	<path fill="#FFFFFF" d="M488,18.4c0.4-0.7,1.3-0.4,1.3,0.3v10.5c0,0.9-1.3,0.9-1.3,0v-8.3l-3.7,5.8c-0.3,0.5-1,0.5-1.3,0l-3.7-5.8
		v8.3c0,0.9-1.3,0.9-1.3,0V18.7c0-0.8,0.9-1,1.2-0.3l4.5,7L488,18.4z"/>
	<path fill="#FFFFFF" d="M496,26.3v2.9c0,0.8-1.3,0.8-1.3,0V18.7c0-0.4,0.3-0.6,0.7-0.6h4c3.2,0,4.6,2.1,4.6,4.2c0,2.2-1.5,4-4.7,4
		H496z M496,25.1h3.3c2.4,0,3.4-1.4,3.4-2.8c0-1.5-1.2-3-3.3-3H496V25.1z"/>
	<path fill="#FFFFFF" d="M508.7,26.7l-1.5,2.9c-0.3,0.7-1.5,0.2-1.2-0.5l5.5-10.9c0.1-0.2,0.4-0.3,0.6-0.3c0.2,0,0.5,0.1,0.6,0.3
		l5.5,10.8c0.5,0.8-0.9,1.2-1.2,0.5l-1.4-2.8H508.7z M512.2,19.7l-2.9,5.8h5.8L512.2,19.7z"/>
	<path fill="#FFFFFF" d="M530.6,18.5c0-0.8,1.4-0.8,1.4,0V29c0,0.9-1.3,1-1.6,0.4l-6.8-9.2l0.1,2.5v6.5c0,0.9-1.4,0.9-1.4,0V18.7
		c0-0.9,1-1.1,1.5-0.4l7,9.4l-0.2-2.8V18.5z"/>
	<path fill="#FFFFFF" d="M540.5,25l-4.6-6.1c-0.5-0.7,0.7-1.4,1.2-0.7l4.1,5.7l4.2-5.7c0.5-0.7,1.6-0.1,1.1,0.7l-4.6,6.2v4.1
		c0,0.5-0.4,0.7-0.7,0.7c-0.4,0-0.7-0.2-0.7-0.7V25z"/>
</g>
</svg>
